<svg xmlns="http://www.w3.org/2000/svg" data-name="Layer 1" viewBox="0 0 80 80"><path d="M52 74H28a5.507 5.507 0 0 1-5.5-5.5v-57A5.507 5.507 0 0 1 28 6h24a5.507 5.507 0 0 1 5.5 5.5v57A5.507 5.507 0 0 1 52 74ZM28 7a4.505 4.505 0 0 0-4.5 4.5v57A4.505 4.505 0 0 0 28 73h24a4.505 4.505 0 0 0 4.5-4.5v-57A4.505 4.505 0 0 0 52 7Z"/><path d="M52 71.5H28a3.003 3.003 0 0 1-3-3v-57a3.003 3.003 0 0 1 3-3h4a1.001 1.001 0 0 1 1 1 1.001 1.001 0 0 0 1 1h12a1.001 1.001 0 0 0 1-1 1.001 1.001 0 0 1 1-1h4a3.003 3.003 0 0 1 3 3v57a3.003 3.003 0 0 1-3 3Zm-24-62a2.002 2.002 0 0 0-2 2v57a2.002 2.002 0 0 0 2 2h24a2.002 2.002 0 0 0 2-2v-57a2.002 2.002 0 0 0-2-2h-4a2.002 2.002 0 0 1-2 2H34a2.002 2.002 0 0 1-2-2Z"/><path d="M41 9.5h-5a.5.5 0 0 1 0-1h5a.5.5 0 0 1 0 1Z"/><circle cx="43.5" cy="9" r=".75"/></svg>